<?xml version="1.0" encoding="utf-8"?>
<!-- Generator: Adobe Illustrator 24.2.1, SVG Export Plug-In . SVG Version: 6.00 Build 0)  -->
<svg version="1.1" id="Calque_1" xmlns="http://www.w3.org/2000/svg" xmlns:xlink="http://www.w3.org/1999/xlink" x="0px" y="0px"
	 viewBox="0 0 272 340" style="enable-background:new 0 0 272 340;" xml:space="preserve">
<style type="text/css">
	.st0{fill:#0065FC;}
</style>
<path class="st0" d="M142.2,217.3c-2.2-6.8-4.4-12.7-6.5-18c-2-5.2-3.7-9.7-5.2-13.4c-8.5,2.8-17.8,4.8-27.8,5.9
	c0,13.9,0.3,25.8,1,35.6c0.2,6.1,0.4,11.3,0.7,15.7c0.4,4.1,0.8,7.7,1,10.8c0.4,3.1,0.9,5.8,1.3,8.2c0.4,2.6,1.1,5.1,2,7.5
	c-4.4,3.3-8.6,5.7-12.7,7.2c-3.9,1.5-7.4,2.6-10.5,3.3c-3.7,0.9-7,1.1-9.8,0.7c-1.1-3-2.1-6.3-2.9-9.8c-0.9-3.3-1.5-7.8-2-13.7
	c-0.2-5.7-0.3-13-0.3-21.9s0.3-20.4,1-34.3c0.2-1.5,0.3-3.1,0.3-4.6s0.1-3.1,0.3-4.6c-2-0.2-4-0.4-6.2-0.7c-2-0.2-3.9-0.4-5.9-0.7
	c-1.3-3.5-2.2-6.5-2.6-9.1c-0.4-2.8-0.7-5.1-0.7-6.9c0-2.2,0.2-3.9,0.7-5.2c3.5,0.7,7,1,10.5,1h4.9c0.4-9.1,0.9-18.4,1.3-27.8
	c0.4-9.6,0.8-18.8,1-27.8c0.4-9.1,0.8-17.8,1-25.8c0.2-8.3,0.4-15.8,0.7-22.5c-6.5,4.4-12.2,10-17,17c-4.8,7-8.1,15-9.8,24.2
	c-2.8-0.4-5.2-1.7-7.2-3.9c-2-2.4-3.6-4.8-4.9-7.2c-1.5-2.8-2.8-6-3.9-9.5c-1.1-4.1-1.1-8.3,0-12.4c1.1-4.4,2.7-8.4,4.9-12.1
	c2.2-3.9,4.7-7.3,7.5-10.1c2.8-3,5.6-5.4,8.2-7.2c4.6-2.8,9.3-5.3,14.1-7.5c5-2.4,10.6-4.4,16.7-5.9c2.4-2.4,5-4.6,7.8-6.5
	c3.1-2,5.9-3.2,8.5-3.6c3.7-0.9,5.8,1.4,6.2,6.9c2-0.2,4-0.3,6.2-0.3c2.2-0.2,4.5-0.3,6.9-0.3c8.3,0,16.9,1.3,25.8,3.9
	c8.9,2.6,17.1,6.9,24.5,12.7c7.6,5.7,13.8,13.2,18.6,22.5c4.8,9.1,7.2,20.4,7.2,33.7c0,15-3.6,28.9-10.8,41.5
	c-7,12.6-17,23.1-30.1,31.4c1.5,3.9,3.5,8.8,5.9,14.7c2.4,5.9,4.8,12.5,7.2,19.9c3.5,9.1,7.2,17.8,11.1,25.8
	c4.1,7.8,8.4,14.7,12.7,20.6c4.4,5.9,8.9,10.6,13.7,14c4.8,3.7,9.6,5.9,14.4,6.5c-2.8,4.4-6.1,7.4-9.8,9.1
	c-3.7,1.7-7.4,2.8-11.1,3.3c-4.1,0.7-8.5,0.7-13.1,0c-6.3-1.3-11.8-4.4-16.3-9.1c-4.6-4.8-8.6-10.6-12.1-17.3
	c-3.3-6.8-6.3-13.9-9.1-21.6C146.8,231.6,144.4,224.2,142.2,217.3z M104.3,78.1c0,4.8-0.1,10.6-0.3,17.3c-0.2,6.8-0.4,14.1-0.7,21.9
	c0,7.8-0.1,16.1-0.3,24.8c-0.2,8.5-0.3,17-0.3,25.5c5.9-0.9,12.3-2.3,19.3-4.2c7.2-2,13.8-5.2,19.9-9.8c6.1-4.6,11.2-10.7,15.4-18.3
	c4.1-7.6,6.2-17.4,6.2-29.4c0-9.1-1.6-16.9-4.9-23.2c-3.1-6.5-7.1-11.8-12.1-15.7c-5-4.1-10.6-7.1-16.7-8.8
	c-5.9-2-11.8-2.9-17.6-2.9c-1.1,0-2.2,0-3.3,0c-1.1,0-2.3,0.1-3.6,0.3C104.6,62.5,104.3,70,104.3,78.1z"/>
</svg>
